<svg width="16" height="16" viewBox="0 0 16 16" fill="none" xmlns="http://www.w3.org/2000/svg">
<path d="M11.9 14.6666H8.1C7.86131 14.6666 7.63239 14.5537 7.4636 14.3528C7.29482 14.1518 7.2 13.8793 7.2 13.5952V3.23801H4.8V7.88087C4.8 8.16503 4.70518 8.43755 4.5364 8.63849C4.36761 8.83942 4.13869 8.9523 3.9 8.9523H0.4C0.293913 8.9523 0.192172 8.90213 0.117157 8.81283C0.0421427 8.72352 0 8.6024 0 8.47611V7.52373C0 7.39744 0.0421427 7.27631 0.117157 7.18701C0.192172 7.09771 0.293913 7.04754 0.4 7.04754H3.2V2.40468C3.2 2.12052 3.29482 1.848 3.4636 1.64707C3.63239 1.44613 3.86131 1.33325 4.1 1.33325H7.9C8.13869 1.33325 8.36761 1.44613 8.5364 1.64707C8.70518 1.848 8.8 2.12052 8.8 2.40468V12.7618H11.2V8.11897C11.2 7.83481 11.2948 7.56228 11.4636 7.36135C11.6324 7.16042 11.8613 7.04754 12.1 7.04754H15.6C15.7061 7.04754 15.8078 7.09771 15.8828 7.18701C15.9579 7.27631 16 7.39744 16 7.52373V8.47611C16 8.6024 15.9579 8.72352 15.8828 8.81283C15.8078 8.90213 15.7061 8.9523 15.6 8.9523H12.8V13.5952C12.8 13.8793 12.7052 14.1518 12.5364 14.3528C12.3676 14.5537 12.1387 14.6666 11.9 14.6666Z" fill="#37373A"/>
</svg>
