<svg width="12" height="11" viewBox="0 0 12 11" fill="none" xmlns="http://www.w3.org/2000/svg">
<path d="M11.8601 1.9398C11.4401 2.1198 10.9601 2.2398 10.4801 2.2998C10.9601 1.9998 11.3801 1.51981 11.5601 0.979807C11.0801 1.27981 10.6001 1.45981 10.0001 1.57981C9.5801 1.09981 8.92009 0.799805 8.26009 0.799805C6.94009 0.799805 5.86009 1.8798 5.86009 3.1998C5.86009 3.3798 5.8601 3.5598 5.92009 3.7398C3.9401 3.6198 2.14009 2.6598 0.940094 1.2198C0.760094 1.5798 0.640094 1.9998 0.640094 2.4198C0.640094 3.2598 1.0601 3.9798 1.7201 4.3998C1.3001 4.3998 0.940094 4.2798 0.640094 4.0998C0.640094 5.2398 1.48009 6.2598 2.56009 6.4398C2.38009 6.4998 2.1401 6.4998 1.9001 6.4998C1.7201 6.4998 1.6001 6.4998 1.4201 6.4398C1.7201 7.3998 2.6201 8.1198 3.7001 8.1198C2.8601 8.7798 1.8401 9.1398 0.700098 9.1398C0.520098 9.1398 0.340098 9.13981 0.100098 9.07981C1.1801 9.73981 2.4401 10.1598 3.8201 10.1598C8.26009 10.1598 10.6601 6.4998 10.6601 3.3198V3.0198C11.1401 2.8398 11.5601 2.4198 11.8601 1.9398Z" fill="#FFFBF9"/>
</svg>
