<svg width="16" height="13" viewBox="0 0 16 13" fill="none" xmlns="http://www.w3.org/2000/svg">
<path d="M15.6166 10.8309C15.0192 10.7496 14.4469 10.4753 14.008 10.0554C13.6162 9.67957 13.0578 9.67279 12.6688 10.0554C11.6159 11.0848 9.69055 11.0848 8.62092 10.0046C8.24586 9.62539 7.7041 9.6965 7.32348 10.0656C6.26774 11.0848 4.35352 11.0815 3.28945 10.008C2.91439 9.62877 2.36429 9.70666 1.9809 10.0758C1.55027 10.4889 0.980724 10.7564 0.377843 10.8343C0.15836 10.8614 0 11.0984 0 11.3659V12.4563C0 12.7644 0.211147 13.0252 0.463968 12.9981C1.26411 12.9134 2.02257 12.612 2.6699 12.121C4.23962 13.2927 6.47611 13.2757 8.00415 12.121C9.57386 13.2927 11.8104 13.2757 13.3384 12.121C13.9857 12.6019 14.7525 12.91 15.536 12.9947C15.7888 13.0218 16 12.761 16 12.4529V11.3828C16.0027 11.1119 15.8416 10.8614 15.6166 10.8309ZM15.6166 5.95472C15.0192 5.87345 14.4469 5.59917 14.008 5.17928C13.6162 4.80341 13.0578 4.79664 12.6688 5.17928C11.6159 6.20869 9.69055 6.20869 8.62092 5.12849C8.24586 4.74923 7.7041 4.82034 7.32348 5.18944C6.26774 6.20869 4.35352 6.2053 3.28945 5.13187C2.91439 4.75262 2.36429 4.8305 1.9809 5.1996C1.55027 5.61272 0.980724 5.88023 0.377843 5.95811C0.15836 5.9852 0 6.22224 0 6.48975V7.58011C0 7.88826 0.211147 8.14899 0.463968 8.12191C1.26411 8.03725 2.02257 7.73588 2.6699 7.24487C4.23962 8.41651 6.47611 8.39958 8.00415 7.24487C9.57386 8.41651 11.8104 8.39958 13.3384 7.24487C13.9857 7.72572 14.7525 8.03386 15.536 8.11852C15.7888 8.14561 16 7.88487 16 7.57672V6.50668C16.0027 6.23578 15.8416 5.9852 15.6166 5.95472ZM15.6166 1.07857C15.0192 0.993911 14.4469 0.723014 14.008 0.303122C13.6162 -0.0727482 13.0578 -0.0795207 12.6688 0.303122C11.6159 1.33253 9.69055 1.33253 8.62092 0.252329C8.24586 -0.126928 7.7041 -0.055817 7.32348 0.313281C6.26774 1.33253 4.35352 1.32915 3.28945 0.255715C2.91439 -0.123542 2.36429 -0.0456585 1.9809 0.32344C1.55027 0.736558 0.980724 1.00407 0.377843 1.08195C0.15836 1.10904 0 1.34608 0 1.61359V2.70395C0 3.0121 0.211147 3.27284 0.463968 3.24575C1.26411 3.16109 2.02257 2.85972 2.6699 2.36872C4.23962 3.54035 6.47611 3.52342 8.00415 2.36872C9.57386 3.54035 11.8104 3.52342 13.3384 2.36872C13.9857 2.84956 14.7525 3.15771 15.536 3.24236C15.7888 3.26945 16 3.00871 16 2.70057V1.63052C16.0027 1.35962 15.8416 1.10904 15.6166 1.07857Z" fill="#37373A"/>
</svg>
