<svg width="16" height="16" viewBox="0 0 16 16" fill="none" xmlns="http://www.w3.org/2000/svg">
<path d="M15.8727 5.29143C11.4435 0.902054 4.55473 0.903661 0.127229 5.29143C-0.0392713 5.45643 -0.0425213 5.7358 0.118479 5.90696L0.974479 6.81687C1.12798 6.98027 1.37498 6.98375 1.53448 6.82705C5.18248 3.24634 10.817 3.24554 14.4657 6.82705C14.6252 6.98375 14.8722 6.98 15.0257 6.81687L15.8817 5.90696C16.0425 5.7358 16.0392 5.45643 15.8727 5.29143ZM7.99998 10.5714C7.11623 10.5714 6.39998 11.3388 6.39998 12.2857C6.39998 13.2326 7.11623 14 7.99998 14C8.88373 14 9.59998 13.2326 9.59998 12.2857C9.59998 11.3388 8.88373 10.5714 7.99998 10.5714ZM13.0667 8.33241C10.1852 5.60214 5.81148 5.60509 2.93323 8.33241C2.76073 8.4958 2.75523 8.77946 2.91898 8.9525L3.77998 9.86295C3.92998 10.0215 4.17148 10.0322 4.33123 9.88438C6.42998 7.94054 9.57473 7.94482 11.6685 9.88438C11.8282 10.0322 12.0697 10.0218 12.2197 9.86295L13.0807 8.9525C13.2447 8.77946 13.239 8.49554 13.0667 8.33241Z" fill="#37373A"/>
</svg>
